<?xml version="1.0" encoding="UTF-8"?>
<!DOCTYPE svg PUBLIC "-//W3C//DTD SVG 1.1//EN" "http://www.w3.org/Graphics/SVG/1.1/DTD/svg11.dtd">
<svg xmlns="http://www.w3.org/2000/svg" version="1.1" width="59px" height="63px" style="shape-rendering:geometricPrecision; text-rendering:geometricPrecision; image-rendering:optimizeQuality; fill-rule:evenodd; clip-rule:evenodd" xmlns:xlink="http://www.w3.org/1999/xlink">
<g><path style="opacity:0.947" fill="#00499d" d="M 11.5,-0.5 C 13.1667,-0.5 14.8333,-0.5 16.5,-0.5C 21.3741,2.85881 26.5408,5.85881 32,8.5C 37.4522,6.75926 42.9522,5.59259 48.5,5C 49.4025,10.4467 49.5692,15.9467 49,21.5C 51.9422,26.4056 55.1089,31.0723 58.5,35.5C 58.5,36.8333 58.5,38.1667 58.5,39.5C 52.884,40.1249 47.2173,40.7915 41.5,41.5C 39.2346,47.796 37.068,54.1294 35,60.5C 34.0053,61.0659 33.172,61.7326 32.5,62.5C 32.1667,62.5 31.8333,62.5 31.5,62.5C 30.828,61.7326 29.9947,61.0659 29,60.5C 27.2875,52.2661 25.4542,44.0995 23.5,36C 15.4218,35.8021 7.42177,35.3021 -0.5,34.5C -0.5,33.1667 -0.5,31.8333 -0.5,30.5C 4.44065,26.7349 9.27398,22.7349 14,18.5C 13.3828,13.1232 12.2161,7.78991 10.5,2.5C 10.685,1.41635 11.0183,0.416349 11.5,-0.5 Z"/></g>
</svg>
