<?xml version="1.0" encoding="UTF-8"?>
<!DOCTYPE svg PUBLIC "-//W3C//DTD SVG 1.1//EN" "http://www.w3.org/Graphics/SVG/1.1/DTD/svg11.dtd">
<svg xmlns="http://www.w3.org/2000/svg" version="1.1" width="330px" height="126px" style="shape-rendering:geometricPrecision; text-rendering:geometricPrecision; image-rendering:optimizeQuality; fill-rule:evenodd; clip-rule:evenodd" xmlns:xlink="http://www.w3.org/1999/xlink">
<g><path style="opacity:0.964" fill="#00499d" d="M 282.5,-0.5 C 284.167,-0.5 285.833,-0.5 287.5,-0.5C 292.374,2.85881 297.541,5.85881 303,8.5C 308.381,6.47673 313.881,5.31007 319.5,5C 320.357,5.68909 321.023,6.52242 321.5,7.5C 320.448,12.1329 319.948,16.7996 320,21.5C 322.942,26.4056 326.109,31.0723 329.5,35.5C 329.5,36.8333 329.5,38.1667 329.5,39.5C 323.884,40.1249 318.217,40.7915 312.5,41.5C 310.235,47.796 308.068,54.1294 306,60.5C 304.236,62.661 302.403,62.8277 300.5,61C 298.373,52.6963 296.373,44.3629 294.5,36C 286.588,35.8166 278.754,35.3166 271,34.5C 270.219,33.0563 270.386,31.723 271.5,30.5C 276.384,26.1143 281.05,21.6143 285.5,17C 284.065,12.1954 282.732,7.3621 281.5,2.5C 281.685,1.41635 282.018,0.416349 282.5,-0.5 Z"/></g>
<g><path style="opacity:0.915" fill="#000000" d="M -0.5,22.5 C -0.5,20.5 -0.5,18.5 -0.5,16.5C 1.31481,12.5212 4.31481,9.68784 8.5,8C 33.8311,7.50003 59.1645,7.33336 84.5,7.5C 84.1183,13.7677 81.1183,18.2677 75.5,21C 66.9021,22.3759 58.2354,22.8759 49.5,22.5C 49.5,56.5 49.5,90.5 49.5,124.5C 41.2832,124.472 36.1165,120.472 34,112.5C 33.5,82.5019 33.3334,52.5019 33.5,22.5C 22.1667,22.5 10.8333,22.5 -0.5,22.5 Z"/></g>
<g><path style="opacity:0.89" fill="#000000" d="M 131.5,20.5 C 139.269,20.6244 144.436,24.2911 147,31.5C 147.5,57.1645 147.667,82.8312 147.5,108.5C 138.219,107.718 133.052,102.718 132,93.5C 131.5,69.1689 131.333,44.8356 131.5,20.5 Z"/></g>
<g><path style="opacity:0.919" fill="#000000" d="M 82.5,43.5 C 91.615,42.6003 100.282,44.1003 108.5,48C 113.86,52.2188 117.027,57.7188 118,64.5C 118.5,79.1629 118.667,93.8295 118.5,108.5C 111.409,110.033 106.243,107.7 103,101.5C 91.4486,111.065 79.282,111.898 66.5,104C 60.0087,96.2864 58.8421,87.7864 63,78.5C 72.2409,69.0606 83.4076,65.894 96.5,69C 98.8127,69.662 101.146,70.162 103.5,70.5C 103.297,63.7997 99.9636,59.6331 93.5,58C 85.4669,56.8078 77.8002,57.9745 70.5,61.5C 68.5342,51.4147 72.5342,45.4147 82.5,43.5 Z M 84.5,79.5 C 90.934,79.3272 97.2674,79.9938 103.5,81.5C 104.371,89.9333 100.705,95.1 92.5,97C 86.6837,98.409 81.517,97.2424 77,93.5C 74.498,86.1714 76.998,81.5047 84.5,79.5 Z"/></g>
<g><path style="opacity:0.922" fill="#000000" d="M 179.5,43.5 C 190.035,42.0517 199.701,44.2183 208.5,50C 211.85,53.5319 214.016,57.6986 215,62.5C 215.5,77.8297 215.667,93.163 215.5,108.5C 208.485,110.074 203.319,107.74 200,101.5C 189.911,110.299 178.744,111.799 166.5,106C 154.871,95.3167 154.538,84.3167 165.5,73C 176.819,67.963 188.486,67.1297 200.5,70.5C 200.855,63.3741 197.522,59.2075 190.5,58C 182.479,56.8076 174.812,57.9743 167.5,61.5C 165.518,51.4863 169.518,45.4863 179.5,43.5 Z M 181.5,79.5 C 187.627,79.1768 193.627,79.8435 199.5,81.5C 201.752,90.1076 198.419,95.2742 189.5,97C 184.597,97.9369 179.93,97.2702 175.5,95C 171.338,87.2873 173.338,82.1206 181.5,79.5 Z"/></g>
<g><path style="opacity:0.935" fill="#000000" d="M 257.5,43.5 C 269.9,41.2855 279.067,45.6188 285,56.5C 286.138,73.4779 286.971,90.4779 287.5,107.5C 279.987,108.205 274.82,104.872 272,97.5C 271.932,86.4283 271.265,75.4283 270,64.5C 265.59,57.4289 259.423,55.5955 251.5,59C 249.083,60.6626 247.25,62.8293 246,65.5C 244.589,79.7828 244.089,94.1161 244.5,108.5C 239.5,108.5 234.5,108.5 229.5,108.5C 229.5,87.1667 229.5,65.8333 229.5,44.5C 237.271,43.2946 242.438,46.2946 245,53.5C 248.191,48.8366 252.358,45.5032 257.5,43.5 Z"/></g>
</svg>
