<?xml version="1.0" encoding="UTF-8"?>
<!DOCTYPE svg PUBLIC "-//W3C//DTD SVG 1.1//EN" "http://www.w3.org/Graphics/SVG/1.1/DTD/svg11.dtd">
<svg xmlns="http://www.w3.org/2000/svg" version="1.1" width="519px" height="219px" style="shape-rendering:geometricPrecision; text-rendering:geometricPrecision; image-rendering:optimizeQuality; fill-rule:evenodd; clip-rule:evenodd" xmlns:xlink="http://www.w3.org/1999/xlink">
<g><path style="opacity:0.965" fill="#fefffe" d="M 420.5,23.5 C 422.527,23.3379 424.527,23.5045 426.5,24C 433.884,28.6919 441.551,32.8585 449.5,36.5C 456.55,34.6543 463.55,32.6543 470.5,30.5C 471.748,31.0402 472.915,31.7069 474,32.5C 473.885,39.8566 473.552,47.19 473,54.5C 478.245,62.0788 483.079,69.9122 487.5,78C 487.241,79.2613 486.574,80.2613 485.5,81C 478.167,81.3333 470.833,81.6667 463.5,82C 459.833,91.6667 456.167,101.333 452.5,111C 449.653,111.944 447.153,111.444 445,109.5C 442.764,97.9046 440.264,86.4046 437.5,75C 426.833,74.6667 416.167,74.3333 405.5,74C 403.675,72.5341 403.175,70.7008 404,68.5C 410.667,62.5 417.333,56.5 424,50.5C 423.074,42.9495 421.574,35.4495 419.5,28C 419.605,26.4085 419.939,24.9085 420.5,23.5 Z"/></g>
<g><path style="opacity:0.965" fill="#fefffe" d="M 32.5,35.5 C 68.1667,35.5 103.833,35.5 139.5,35.5C 139.012,46.4893 133.345,52.9893 122.5,55C 111.839,55.4998 101.172,55.6665 90.5,55.5C 90.5,104.167 90.5,152.833 90.5,201.5C 79.4197,200.717 72.253,195.051 69,184.5C 68.5,141.501 68.3333,98.5013 68.5,55.5C 52.1667,55.5 35.8333,55.5 19.5,55.5C 19.2153,48.9013 21.5487,43.4013 26.5,39C 28.7274,38.059 30.7274,36.8923 32.5,35.5 Z"/></g>
<g><path style="opacity:0.974" fill="#fefffe" d="M 207.5,53.5 C 217.628,54.1439 224.462,59.1439 228,68.5C 228.5,104.832 228.667,141.165 228.5,177.5C 217.584,176.75 210.751,171.083 208,160.5C 207.5,124.835 207.333,89.1682 207.5,53.5 Z"/></g>
<g><path style="opacity:0.961" fill="#fefffe" d="M 390.5,85.5 C 410.908,84.7462 422.741,94.4129 426,114.5C 426.5,135.497 426.667,156.497 426.5,177.5C 414.634,177.136 407.468,171.136 405,159.5C 404.95,144.765 404.284,130.099 403,115.5C 397.958,106.92 390.458,103.753 380.5,106C 374.307,108.193 370.141,112.359 368,118.5C 366.562,138.12 366.062,157.787 366.5,177.5C 359.5,177.5 352.5,177.5 345.5,177.5C 345.5,147.5 345.5,117.5 345.5,87.5C 356.062,85.6925 363.229,89.6925 367,99.5C 373.045,91.5797 380.879,86.913 390.5,85.5 Z"/></g>
<g><path style="opacity:0.963" fill="#fefffe" d="M 136.5,86.5 C 149.877,84.8992 162.544,87.0659 174.5,93C 181.6,98.4398 185.767,105.606 187,114.5C 187.5,135.497 187.667,156.497 187.5,177.5C 183.154,177.666 178.821,177.499 174.5,177C 169.948,175.412 167.115,172.245 166,167.5C 157.145,176.76 146.312,180.593 133.5,179C 112.319,175.807 103.486,163.64 107,142.5C 111.692,130.491 120.526,123.657 133.5,122C 144.662,120.941 155.662,121.774 166.5,124.5C 165.483,111.163 158.15,104.83 144.5,105.5C 136.386,105.823 128.553,107.49 121,110.5C 120.228,110.355 119.561,110.022 119,109.5C 117.856,96.4818 123.689,88.8151 136.5,86.5 Z M 142.5,136.5 C 150.688,136.408 158.688,137.574 166.5,140C 168.257,151.795 163.257,159.129 151.5,162C 144.946,163.081 138.612,162.414 132.5,160C 127.847,156.212 126.347,151.378 128,145.5C 131.47,140.177 136.304,137.177 142.5,136.5 Z"/></g>
<g><path style="opacity:0.957" fill="#fefffe" d="M 274.5,86.5 C 283.226,86.1614 291.893,86.6614 300.5,88C 314.645,91.813 322.812,100.98 325,115.5C 325.5,136.164 325.667,156.831 325.5,177.5C 321.154,177.666 316.821,177.499 312.5,177C 307.948,175.412 305.115,172.245 304,167.5C 293.169,178.062 280.336,181.562 265.5,178C 247.945,172.394 241.112,160.56 245,142.5C 249.544,130.292 258.377,123.459 271.5,122C 282.662,120.941 293.662,121.774 304.5,124.5C 305.016,116.031 301.349,110.197 293.5,107C 287.569,105.529 281.569,105.196 275.5,106C 269.127,107.404 262.794,108.904 256.5,110.5C 255.292,96.8637 261.292,88.8637 274.5,86.5 Z M 280.5,136.5 C 288.628,136.566 296.628,137.566 304.5,139.5C 305.866,151.273 300.866,158.773 289.5,162C 282.946,163.081 276.612,162.414 270.5,160C 263.833,153.333 263.833,146.667 270.5,140C 273.85,138.514 277.184,137.347 280.5,136.5 Z"/></g>
</svg>
